# xmcd
#
# Track frame offsets: 
#        183
#        10398
#        23093
#        37678
#        53480
#        68998
#        81363
#        90603
#        104175
#        116033
#        124190
#        130343
#        149240
#        159405
#        170475
#        181108
#        190165
#        199725
#        210988
#        228258
#        243508
#        253248
#        266415
#        278823
#        297828
#
# Disc length: 4191 seconds
#
# Revision: 2
# Processed by: cddbd v1.5.2PL0 Copyright (c) Steve Scherf et al.
# Submitted via: ExactAudioCopyFreeDBPlugin 1.0
#
DISCID=6c105d19
DTITLE=Various Artist - Piknik Country Mragowo '89
DYEAR=1990
DGENRE=Country
TTITLE0=Dave Travis - Bongo Rock
TTITLE1=Dave Travis - Hot Dog
TTITLE2=Konwoj - Z Wiatrem w Swiat
TTITLE3=Konwoj - Bez Ciebie
TTITLE4=Medicus - Rock Around The Clock
TTITLE5=Little Maggie - Nikt Cie Nie Kocha Tak Jak Ja
TTITLE6=Little Maggie - Money In The Mail
TTITLE7=Kelly's Revenge - Irish Tune - Chick Go The Shears
TTITLE8=Double Bubble - Mystery Train
TTITLE9=American Folk Dance Ensemble - Dixieland Delight
TTITLE10=American Folk Dance Ensemble - Instrumental Medley
TTITLE11=American Folk Dance Ensemble - Home On The Range Medley
TTITLE12=American Folk Dance Ensemble - Auctioneer
TTITLE13=Country Sisters - Hey!
TTITLE14=Country Sisters - Down, Down, Down
TTITLE15=Grupa Rogala - Country Fan
TTITLE16=Bluegrass Union - Cripple Creek
TTITLE17=Bluegrass Union - Little Maggie
TTITLE18=Kelly's Revenge - Shores Of Botany Bay
TTITLE19=Tomasz Szwed - Kiedy Grabia Siano
TTITLE20=Tomasz Szwed - Crying Holly Unto The Lord
TTITLE21=Marie Rhines - Big Rock Candy Mountain
TTITLE22=Mickey Newbury - Shenandoah
TTITLE23=Mickey Newbury - She Even Woke Me Up To Say Goodbye
TTITLE24=Mickey Newbury - Please Send Me Someone To Love
EXTD=© 1990, Polskie Nagrania (PNCD 047)
EXTT0=
EXTT1=
EXTT2=
EXTT3=
EXTT4=
EXTT5=
EXTT6=
EXTT7=
EXTT8=
EXTT9=
EXTT10=
EXTT11=
EXTT12=
EXTT13=
EXTT14=
EXTT15=
EXTT16=
EXTT17=
EXTT18=
EXTT19=
EXTT20=
EXTT21=
EXTT22=
EXTT23=
EXTT24=
PLAYORDER=
